<svg xmlns="http://www.w3.org/2000/svg" width="1920" height="1080"><path d="M605,1418L-428,1462L961,1428Z" fill="#e6ecf2" stroke="#e6ecf2" stroke-width="1.51"/><path d="M574,-446L1523,-384L1882,-375Z" fill="#648cb2" stroke="#648cb2" stroke-width="1.51"/><path d="M961,1428L-428,1462L2219,1506Z" fill="#ccd7e5" stroke="#ccd7e5" stroke-width="1.51"/><path d="M2064,1439L1798,1417L2219,1506Z" fill="#cfdae7" stroke="#cfdae7" stroke-width="1.51"/><path d="M1798,1417L961,1428L2219,1506Z" fill="#aec1d6" stroke="#aec1d6" stroke-width="1.51"/><path d="M2109,1253L2219,1506L2248,1097Z" fill="#c9d5e3" stroke="#c9d5e3" stroke-width="1.51"/><path d="M2248,1097L2219,1506L2318,827Z" fill="#bdccdd" stroke="#bdccdd" stroke-width="1.51"/><path d="M1958,748L2318,827L2347,680Z" fill="#a6bbd2" stroke="#a6bbd2" stroke-width="1.51"/><path d="M2094,284L1958,748L2347,680Z" fill="#b7c7da" stroke="#b7c7da" stroke-width="1.51"/><path d="M2318,827L2219,1506L2347,680Z" fill="#aec1d6" stroke="#aec1d6" stroke-width="1.51"/><path d="M2094,284L2347,680L2350,253Z" fill="#d7e0eb" stroke="#d7e0eb" stroke-width="1.51"/><path d="M2170,31L2094,284L2350,253Z" fill="#ebeff4" stroke="#ebeff4" stroke-width="1.51"/><path d="M2280,-293L2170,31L2350,253Z" fill="#d7e0eb" stroke="#d7e0eb" stroke-width="1.51"/><path d="M2109,1253L2064,1439L2219,1506Z" fill="#d2dce8" stroke="#d2dce8" stroke-width="1.51"/><path d="M1958,748L2248,1097L2318,827Z" fill="#95aec9" stroke="#95aec9" stroke-width="1.51"/><path d="M1856,673L1958,748L2094,284Z" fill="#a9bcd3" stroke="#a9bcd3" stroke-width="1.51"/><path d="M1844,-56L2170,31L2280,-293Z" fill="#bccadc" stroke="#bccadc" stroke-width="1.51"/><path d="M1882,-375L1844,-56L2280,-293Z" fill="#a2b7d0" stroke="#a2b7d0" stroke-width="1.51"/><path d="M1523,-384L1648,-353L1882,-375Z" fill="#7496b9" stroke="#7496b9" stroke-width="1.51"/><path d="M1804,440L1856,673L2094,284Z" fill="#b1c3d7" stroke="#b1c3d7" stroke-width="1.51"/><path d="M1753,1011L2109,1253L2248,1097Z" fill="#a6bad2" stroke="#a6bad2" stroke-width="1.51"/><path d="M1958,748L1753,1011L2248,1097Z" fill="#8ba7c4" stroke="#8ba7c4" stroke-width="1.51"/><path d="M1844,-56L2094,284L2170,31Z" fill="#ced9e6" stroke="#ced9e6" stroke-width="1.51"/><path d="M1844,-56L1750,358L2094,284Z" fill="#d0dae7" stroke="#d0dae7" stroke-width="1.51"/><path d="M1798,1417L2064,1439L2109,1253Z" fill="#c1cfe0" stroke="#c1cfe0" stroke-width="1.51"/><path d="M1753,1011L1798,1417L2109,1253Z" fill="#a6bad1" stroke="#a6bad1" stroke-width="1.51"/><path d="M1750,358L1804,440L2094,284Z" fill="#bbcadc" stroke="#bbcadc" stroke-width="1.51"/><path d="M1253,1283L961,1428L1798,1417Z" fill="#9bb2cc" stroke="#9bb2cc" stroke-width="1.51"/><path d="M1649,-136L1844,-56L1882,-375Z" fill="#96aec9" stroke="#96aec9" stroke-width="1.51"/><path d="M1856,673L1826,699L1958,748Z" fill="#8fa9c6" stroke="#8fa9c6" stroke-width="1.51"/><path d="M1826,699L1753,1011L1958,748Z" fill="#7c9dbd" stroke="#7c9dbd" stroke-width="1.51"/><path d="M1493,305L1750,358L1844,-56Z" fill="#bfcdde" stroke="#bfcdde" stroke-width="1.51"/><path d="M1649,-136L1493,305L1844,-56Z" fill="#a7bbd2" stroke="#a7bbd2" stroke-width="1.51"/><path d="M1804,440L1826,699L1856,673Z" fill="#97afca" stroke="#97afca" stroke-width="1.51"/><path d="M1648,-353L1649,-136L1882,-375Z" fill="#83a1c1" stroke="#83a1c1" stroke-width="1.51"/><path d="M1462,-74L1493,305L1649,-136Z" fill="#9ab2cc" stroke="#9ab2cc" stroke-width="1.51"/><path d="M1753,1011L1253,1283L1798,1417Z" fill="#8da9c6" stroke="#8da9c6" stroke-width="1.51"/><path d="M1804,440L1336,563L1826,699Z" fill="#8ca8c5" stroke="#8ca8c5" stroke-width="1.51"/><path d="M1276,707L1753,1011L1826,699Z" fill="#698fb4" stroke="#698fb4" stroke-width="1.51"/><path d="M1336,563L1276,707L1826,699Z" fill="#7094b7" stroke="#7094b7" stroke-width="1.51"/><path d="M1750,358L1493,305L1804,440Z" fill="#a8bcd3" stroke="#a8bcd3" stroke-width="1.51"/><path d="M1493,305L1336,563L1804,440Z" fill="#93adc8" stroke="#93adc8" stroke-width="1.51"/><path d="M1276,707L1254,977L1753,1011Z" fill="#5281aa" stroke="#5281aa" stroke-width="1.51"/><path d="M1254,977L1253,1283L1753,1011Z" fill="#6d92b6" stroke="#6d92b6" stroke-width="1.51"/><path d="M574,-446L1012,-210L1523,-384Z" fill="#86a3c2" stroke="#86a3c2" stroke-width="1.51"/><path d="M1648,-353L1523,-384L1649,-136Z" fill="#7799ba" stroke="#7799ba" stroke-width="1.51"/><path d="M1523,-384L1462,-74L1649,-136Z" fill="#7d9ebe" stroke="#7d9ebe" stroke-width="1.51"/><path d="M574,-446L786,-262L1012,-210Z" fill="#a1b8cf" stroke="#a1b8cf" stroke-width="1.51"/><path d="M1462,-74L1236,-136L1493,305Z" fill="#96afca" stroke="#96afca" stroke-width="1.51"/><path d="M1236,-136L988,187L1493,305Z" fill="#b0c2d7" stroke="#b0c2d7" stroke-width="1.51"/><path d="M1012,-210L1236,-136L1523,-384Z" fill="#809ebe" stroke="#809ebe" stroke-width="1.51"/><path d="M1236,-136L1462,-74L1523,-384Z" fill="#779abb" stroke="#779abb" stroke-width="1.51"/><path d="M988,187L1336,563L1493,305Z" fill="#a4b9d1" stroke="#a4b9d1" stroke-width="1.51"/><path d="M988,187L1086,573L1336,563Z" fill="#a5bad1" stroke="#a5bad1" stroke-width="1.51"/><path d="M994,1123L1253,1283L1254,977Z" fill="#8aa6c4" stroke="#8aa6c4" stroke-width="1.51"/><path d="M1086,573L1276,707L1336,563Z" fill="#86a3c2" stroke="#86a3c2" stroke-width="1.51"/><path d="M861,34L988,187L1012,-210Z" fill="#bbcadc" stroke="#bbcadc" stroke-width="1.51"/><path d="M1012,-210L988,187L1236,-136Z" fill="#a8bcd3" stroke="#a8bcd3" stroke-width="1.51"/><path d="M1086,573L958,733L1276,707Z" fill="#8aa6c4" stroke="#8aa6c4" stroke-width="1.51"/><path d="M958,733L1008,907L1276,707Z" fill="#7e9dbe" stroke="#7e9dbe" stroke-width="1.51"/><path d="M1008,907L1254,977L1276,707Z" fill="#6990b4" stroke="#6990b4" stroke-width="1.51"/><path d="M728,1392L605,1418L961,1428Z" fill="#d2dce8" stroke="#d2dce8" stroke-width="1.51"/><path d="M1008,907L994,1123L1254,977Z" fill="#81a0c0" stroke="#81a0c0" stroke-width="1.51"/><path d="M994,1123L961,1428L1253,1283Z" fill="#a6bbd2" stroke="#a6bbd2" stroke-width="1.51"/><path d="M-127,1327L-428,1462L605,1418Z" fill="#c2cfe0" stroke="#c2cfe0" stroke-width="1.51"/><path d="M865,174L895,651L988,187Z" fill="#c6d3e2" stroke="#c6d3e2" stroke-width="1.51"/><path d="M988,187L895,651L1086,573Z" fill="#afc1d6" stroke="#afc1d6" stroke-width="1.51"/><path d="M895,651L958,733L1086,573Z" fill="#98b0cb" stroke="#98b0cb" stroke-width="1.51"/><path d="M865,174L545,536L895,651Z" fill="#c4d1e1" stroke="#c4d1e1" stroke-width="1.51"/><path d="M861,34L865,174L988,187Z" fill="#cfdae7" stroke="#cfdae7" stroke-width="1.51"/><path d="M728,1392L961,1428L994,1123Z" fill="#bacadc" stroke="#bacadc" stroke-width="1.51"/><path d="M766,1078L728,1392L994,1123Z" fill="#b1c3d8" stroke="#b1c3d8" stroke-width="1.51"/><path d="M766,1078L994,1123L1008,907Z" fill="#94adc9" stroke="#94adc9" stroke-width="1.51"/><path d="M786,-262L861,34L1012,-210Z" fill="#aec0d6" stroke="#aec0d6" stroke-width="1.51"/><path d="M958,733L766,1078L1008,907Z" fill="#84a2c1" stroke="#84a2c1" stroke-width="1.51"/><path d="M-234,-343L-19,-295L574,-446Z" fill="#95afc9" stroke="#95afc9" stroke-width="1.51"/><path d="M541,1007L766,1078L895,651Z" fill="#95aec9" stroke="#95aec9" stroke-width="1.51"/><path d="M895,651L766,1078L958,733Z" fill="#8ca7c5" stroke="#8ca7c5" stroke-width="1.51"/><path d="M786,-262L502,-134L861,34Z" fill="#c0cedf" stroke="#c0cedf" stroke-width="1.51"/><path d="M498,182L545,536L865,174Z" fill="#e4eaf1" stroke="#e4eaf1" stroke-width="1.51"/><path d="M545,536L432,780L895,651Z" fill="#b7c7da" stroke="#b7c7da" stroke-width="1.51"/><path d="M432,780L541,1007L895,651Z" fill="#a3b9d1" stroke="#a3b9d1" stroke-width="1.51"/><path d="M861,34L498,182L865,174Z" fill="#dde5ee" stroke="#dde5ee" stroke-width="1.51"/><path d="M502,-134L498,182L861,34Z" fill="#dbe3ed" stroke="#dbe3ed" stroke-width="1.51"/><path d="M95,1265L-127,1327L605,1418Z" fill="#c9d5e4" stroke="#c9d5e4" stroke-width="1.51"/><path d="M605,1418L728,1392L766,1078Z" fill="#c9d6e4" stroke="#c9d6e4" stroke-width="1.51"/><path d="M541,1007L605,1418L766,1078Z" fill="#bfcdde" stroke="#bfcdde" stroke-width="1.51"/><path d="M574,-446L502,-134L786,-262Z" fill="#b4c5d9" stroke="#b4c5d9" stroke-width="1.51"/><path d="M498,182L361,571L545,536Z" fill="#e0e8ef" stroke="#e0e8ef" stroke-width="1.51"/><path d="M361,571L432,780L545,536Z" fill="#c5d2e2" stroke="#c5d2e2" stroke-width="1.51"/><path d="M209,-201L502,-134L574,-446Z" fill="#bfcedf" stroke="#bfcedf" stroke-width="1.51"/><path d="M541,1007L186,1180L605,1418Z" fill="#ced9e6" stroke="#ced9e6" stroke-width="1.51"/><path d="M186,1180L95,1265L605,1418Z" fill="#ccd8e5" stroke="#ccd8e5" stroke-width="1.51"/><path d="M178,-27L498,182L502,-134Z" fill="#dee5ee" stroke="#dee5ee" stroke-width="1.51"/><path d="M-19,-295L209,-201L574,-446Z" fill="#a9bdd3" stroke="#a9bdd3" stroke-width="1.51"/><path d="M178,164L361,571L498,182Z" fill="#e5ebf2" stroke="#e5ebf2" stroke-width="1.51"/><path d="M432,780L269,872L541,1007Z" fill="#a3b9d1" stroke="#a3b9d1" stroke-width="1.51"/><path d="M269,872L186,1180L541,1007Z" fill="#adc0d6" stroke="#adc0d6" stroke-width="1.51"/><path d="M178,-27L178,164L498,182Z" fill="#e1e8f0" stroke="#e1e8f0" stroke-width="1.51"/><path d="M209,-201L178,-27L502,-134Z" fill="#c5d2e1" stroke="#c5d2e1" stroke-width="1.51"/><path d="M361,571L269,872L432,780Z" fill="#afc2d6" stroke="#afc2d6" stroke-width="1.51"/><path d="M178,164L-39,539L361,571Z" fill="#c6d3e2" stroke="#c6d3e2" stroke-width="1.51"/><path d="M-26,719L269,872L361,571Z" fill="#a3b9d1" stroke="#a3b9d1" stroke-width="1.51"/><path d="M-39,539L-26,719L361,571Z" fill="#a9bdd3" stroke="#a9bdd3" stroke-width="1.51"/><path d="M-96,197L-39,539L178,164Z" fill="#c9d5e3" stroke="#c9d5e3" stroke-width="1.51"/><path d="M-140,1137L186,1180L269,872Z" fill="#9eb5ce" stroke="#9eb5ce" stroke-width="1.51"/><path d="M-26,719L-140,1137L269,872Z" fill="#84a2c1" stroke="#84a2c1" stroke-width="1.51"/><path d="M178,-27L-63,47L178,164Z" fill="#cbd6e4" stroke="#cbd6e4" stroke-width="1.51"/><path d="M-19,-295L178,-27L209,-201Z" fill="#afc1d6" stroke="#afc1d6" stroke-width="1.51"/><path d="M-19,-295L-63,47L178,-27Z" fill="#b1c3d7" stroke="#b1c3d7" stroke-width="1.51"/><path d="M-140,1137L95,1265L186,1180Z" fill="#aabed4" stroke="#aabed4" stroke-width="1.51"/><path d="M-63,47L-96,197L178,164Z" fill="#ccd8e5" stroke="#ccd8e5" stroke-width="1.51"/><path d="M-140,1137L-127,1327L95,1265Z" fill="#a7bbd2" stroke="#a7bbd2" stroke-width="1.51"/><path d="M-234,-343L-437,74L-63,47Z" fill="#9bb2cc" stroke="#9bb2cc" stroke-width="1.51"/><path d="M-96,197L-291,539L-39,539Z" fill="#abbed4" stroke="#abbed4" stroke-width="1.51"/><path d="M-355,878L-140,1137L-26,719Z" fill="#7195b8" stroke="#7195b8" stroke-width="1.51"/><path d="M-39,539L-291,539L-26,719Z" fill="#97afca" stroke="#97afca" stroke-width="1.51"/><path d="M-234,-343L-63,47L-19,-295Z" fill="#98b0cb" stroke="#98b0cb" stroke-width="1.51"/><path d="M-291,539L-355,878L-26,719Z" fill="#7e9ebe" stroke="#7e9ebe" stroke-width="1.51"/><path d="M-420,170L-291,539L-96,197Z" fill="#afc2d7" stroke="#afc2d7" stroke-width="1.51"/><path d="M-437,74L-420,170L-96,197Z" fill="#b0c3d7" stroke="#b0c3d7" stroke-width="1.51"/><path d="M-437,74L-96,197L-63,47Z" fill="#b6c7da" stroke="#b6c7da" stroke-width="1.51"/><path d="M-355,878L-478,1093L-140,1137Z" fill="#7496b9" stroke="#7496b9" stroke-width="1.51"/><path d="M-140,1137L-478,1093L-127,1327Z" fill="#8ea9c6" stroke="#8ea9c6" stroke-width="1.51"/><path d="M-478,1093L-428,1462L-127,1327Z" fill="#94adc9" stroke="#94adc9" stroke-width="1.51"/><path d="M-420,170L-355,878L-291,539Z" fill="#8aa6c4" stroke="#8aa6c4" stroke-width="1.51"/><path d="M-420,170L-478,1093L-355,878Z" fill="#6c91b5" stroke="#6c91b5" stroke-width="1.51"/><path d="M-437,74L-478,1093L-420,170Z" fill="#8ca9c5" stroke="#8ca9c5" stroke-width="1.51"/></svg>