<?xml version="1.0" encoding="utf-8"?>
<!-- Generator: Adobe Illustrator 19.2.1, SVG Export Plug-In . SVG Version: 6.00 Build 0)  -->
<svg version="1.1" id="Layer_1" xmlns="http://www.w3.org/2000/svg" xmlns:xlink="http://www.w3.org/1999/xlink" x="0px" y="0px"
	 viewBox="0 0 48 48" style="enable-background:new 0 0 48 48;" xml:space="preserve">
<style type="text/css">
	.st0{fill:#FFFFFF;}
</style>
<path class="st0" d="M34.8,0.4c-7,0-12.7,6.5-12.7,14.5v4.7c0,0.3-0.3,0.6-0.6,0.6H3.2c-1.5,0-2.7,1.2-2.7,2.7V45
	c0,1.5,1.2,2.7,2.7,2.7h25.7c1.5,0,2.7-1.2,2.7-2.7V22.8c0-1.5-1.2-2.7-2.7-2.7h-2c-0.3,0-0.6-0.3-0.6-0.6v-4.7
	c0-5.3,3.8-9.6,8.4-9.6c4.7,0,8.4,4.3,8.4,9.6v7.5c0,0.3,0.3,0.6,0.6,0.6h3.2c0.3,0,0.6-0.3,0.6-0.6v-7.5
	C47.5,6.9,41.8,0.4,34.8,0.4z M17.9,36.8c-0.2,0.2-0.3,0.4-0.3,0.7v4.7c0,0.5-0.4,0.9-0.9,0.9h-1.3c-0.5,0-0.9-0.4-0.9-0.9v-4.8
	c0-0.3-0.1-0.6-0.3-0.7c-0.9-0.7-1.3-1.9-1-3.1c0.3-0.9,1-1.7,1.9-2c0.3-0.1,0.6-0.1,0.9-0.1c1.6,0,3,1.3,3,3
	C19.1,35.4,18.6,36.3,17.9,36.8z"/>
</svg>
