<?xml version="1.0" encoding="utf-8"?>
<!-- Generator: Adobe Illustrator 19.2.1, SVG Export Plug-In . SVG Version: 6.00 Build 0)  -->
<svg version="1.1" id="Layer_1" xmlns="http://www.w3.org/2000/svg" xmlns:xlink="http://www.w3.org/1999/xlink" x="0px" y="0px"
	 viewBox="0 0 100 100" style="enable-background:new 0 0 100 100;" xml:space="preserve">
<style type="text/css">
	.st0{fill:#FFFFFF;}
</style>
<path class="st0" d="M92.8,49.1c-2.3,0-4.4,1.3-5.4,3.3l-27.8-4.7c-0.1-0.6-0.2-1.2-0.4-1.8L82,34.6c1.7,1.7,4.4,2.3,6.7,1.1
	c2.8-1.5,3.8-4.9,2.4-7.6c-1.5-2.8-4.9-3.8-7.6-2.4c-2.2,1.1-3.3,3.5-3,5.8L57.6,42.7c-0.5-0.6-1-1.2-1.7-1.7l18.9-26.4
	c0.9,0.1,1.9,0,2.8-0.4c2.9-1.2,4.2-4.5,3-7.4c-1.2-2.9-4.5-4.2-7.4-3c-2.9,1.2-4.2,4.5-3,7.4c0.3,0.8,0.8,1.4,1.4,1.9L52.8,39.2
	c-0.5-0.2-1.1-0.3-1.6-0.5L50,19.1c2-0.8,3.4-2.8,3.4-5.1c0-3-2.5-5.5-5.5-5.5S42.4,11,42.4,14c0,2.5,1.7,4.7,4.1,5.3l1.2,19.4
	c-0.7,0.1-1.4,0.3-2,0.5L24.9,12.8c0.8-1.1,1.3-2.5,1.3-4c0-3.8-3.1-6.9-6.9-6.9S12.5,5,12.5,8.7s3.1,6.9,6.9,6.9c1,0,2-0.2,2.8-0.6
	L42.5,41c-1.1,0.9-2,1.9-2.6,3.2l-18.6-6.4c0-0.1,0-0.2,0-0.3c0-3.2-2.6-5.8-5.8-5.8c-3.2,0-5.8,2.6-5.8,5.8c0,3.2,2.6,5.8,5.8,5.8
	c1.9,0,3.5-0.9,4.6-2.2l18.7,6.5c-0.1,0.6-0.2,1.1-0.2,1.7c0,0.1,0,0.2,0,0.2l-26.9,8.7c-1-1.6-2.8-2.7-4.8-2.7
	c-3.1,0-5.7,2.5-5.7,5.7c0,3.1,2.5,5.7,5.7,5.7c3,0,5.4-2.3,5.6-5.2l26.8-8.7c0.6,1.5,1.4,2.8,2.5,3.9L30.2,73.7
	c-2.6-0.7-5.2,0.8-6,3.3c-0.8,2.6,0.7,5.4,3.3,6.2c2.6,0.8,5.4-0.7,6.2-3.3c0.4-1.5,0.2-3-0.6-4.2l11.6-16.9c1.4,0.6,2.9,1,4.5,1
	c0.2,0,0.4,0,0.6,0L52.1,83c-2.7,0.9-4.6,3.5-4.6,6.5c0,3.8,3.1,6.9,6.9,6.9s6.9-3.1,6.9-6.9c0-3.4-2.4-6.2-5.6-6.8L53.3,59
	c1.4-0.6,2.6-1.5,3.6-2.6l16.5,17.1c-0.5,0.8-0.8,1.8-0.8,2.9c0,3,2.5,5.5,5.5,5.5s5.5-2.5,5.5-5.5s-2.5-5.5-5.5-5.5
	c-0.6,0-1.2,0.1-1.8,0.3c0,0-0.1,0-0.3,0.1L58.9,53.4c0.3-0.7,0.5-1.4,0.7-2.2l27.2,4.6c0.3,3,2.9,5.4,6,5.4c3.3,0,6.1-2.7,6.1-6.1
	C98.9,51.8,96.2,49.1,92.8,49.1z"/>
</svg>
